# xmcd CD database file
#
# Track frame offsets:
#	150
#	15627
#	34855
#	55452
#	82603
#	133604
#	159813
#	174204
#	188121
#
# Disc length: 2678 seconds
#
# Revision: 0
# Processed by: cddbd v1.5.2PL0 Copyright (c) Steve Scherf et al.
# Submitted via: CDex 1.70beta2
#
DISCID=5f0a7409
DTITLE=JUGENDJAZZORCHESTER BADEN-WￜRTTEMBERG - BRASS MACHINE
DYEAR=2008
DGENRE=Jazz
TTITLE0=JUGENDJAZZORCHESTER BADEN-WￜRTTEMBERG - begin the beguine
TTITLE1=JUGENDJAZZORCHESTER BADEN-WￜRTTEMBERG - hard sock dance
TTITLE2=JUGENDJAZZORCHESTER BADEN-WￜRTTEMBERG - brass machine
TTITLE3=JUGENDJAZZORCHESTER BADEN-WￜRTTEMBERG - the year of the rat
TTITLE4=JUGENDJAZZORCHESTER BADEN-WￜRTTEMBERG - gentle piece
TTITLE5=JUGENDJAZZORCHESTER BADEN-WￜRTTEMBERG - centerpiece
TTITLE6=JUGENDJAZZORCHESTER BADEN-WￜRTTEMBERG - the doctor is out
TTITLE7=JUGENDJAZZORCHESTER BADEN-WￜRTTEMBERG - taking a chance on love
TTITLE8=JUGENDJAZZORCHESTER BADEN-WￜRTTEMBERG - how sweet it is
EXTD=YEAR: 2008
EXTT0=
EXTT1=
EXTT2=
EXTT3=
EXTT4=
EXTT5=
EXTT6=
EXTT7=
EXTT8=
PLAYORDER=
